<?xml version="1.0" standalone="no"?>
<!DOCTYPE svg PUBLIC "-//W3C//DTD SVG 20010904//EN"
 "http://www.w3.org/TR/2001/REC-SVG-20010904/DTD/svg10.dtd">
<svg version="1.0" xmlns="http://www.w3.org/2000/svg"
 width="960.000000pt" height="720.000000pt" viewBox="0 0 960.000000 720.000000"
 preserveAspectRatio="xMidYMid meet">

<g transform="translate(0.000000,720.000000) scale(0.100000,-0.100000)"
fill="#000000" stroke="none">
<path d="M3238 6283 c72 -2 192 -2 265 0 72 1 13 3 -133 3 -146 0 -205 -2
-132 -3z"/>
<path d="M3708 6283 c6 -2 18 -2 25 0 6 3 1 5 -13 5 -14 0 -19 -2 -12 -5z"/>
<path d="M3793 6283 c15 -2 37 -2 50 0 12 2 0 4 -28 4 -27 0 -38 -2 -22 -4z"/>
<path d="M4268 6283 c6 -2 18 -2 25 0 6 3 1 5 -13 5 -14 0 -19 -2 -12 -5z"/>
<path d="M3093 6208 c-66 -17 -94 -98 -53 -151 39 -50 145 -44 169 9 l11 25
34 -35 c43 -47 99 -50 139 -10 15 15 24 30 21 35 -8 14 -40 10 -54 -6 -33 -40
-83 9 -64 63 11 32 35 39 57 17 18 -18 53 -20 63 -3 4 6 -4 21 -20 35 -50 43
-140 25 -160 -32 l-7 -20 -14 20 c-38 55 -67 67 -122 53z m55 -50 c26 -26 7
-98 -26 -98 -27 0 -42 20 -42 55 0 34 15 55 40 55 9 0 21 -5 28 -12z"/>
<path d="M3435 6197 c-3 -7 -5 -49 -3 -93 3 -77 4 -79 30 -82 24 -3 27 0 30
35 3 33 6 38 28 38 21 0 26 -6 30 -35 4 -29 9 -35 30 -35 25 0 25 1 28 93 l3
93 -28 -3 c-22 -2 -29 -9 -33 -33 -4 -24 -10 -30 -30 -30 -20 0 -26 6 -30 30
-4 22 -11 31 -28 33 -12 2 -24 -3 -27 -11z"/>
<path d="M3659 6181 c-81 -81 17 -199 125 -150 14 7 32 28 40 48 15 38 23 32
28 -24 l3 -30 73 0 c62 0 76 3 88 20 9 12 12 28 8 40 -3 11 -6 39 -5 63 2 37
-1 43 -25 53 -15 5 -53 9 -83 7 l-56 -3 -3 -38 -3 -39 -38 41 c-33 36 -44 41
-80 41 -34 0 -49 -6 -72 -29z m100 -29 c14 -27 -1 -86 -24 -91 -38 -7 -60 62
-29 93 20 21 41 20 53 -2z m199 1 c2 -8 -6 -13 -22 -13 -25 0 -33 10 -19 24
10 10 36 3 41 -11z m7 -73 c0 -18 -33 -26 -47 -12 -6 6 -7 15 -3 22 10 16 50
8 50 -10z"/>
<path d="M4055 6197 c-3 -7 -5 -49 -3 -93 l3 -79 59 -3 c48 -2 65 1 87 17 28
21 28 21 39 1 6 -11 20 -20 30 -20 16 0 20 7 22 33 7 140 4 159 -26 155 -17
-2 -22 -11 -24 -43 -4 -64 -7 -66 -49 -44 -20 10 -47 19 -59 19 -18 0 -23 7
-26 33 -2 24 -8 33 -26 35 -12 2 -24 -3 -27 -11z m104 -110 c6 -8 8 -17 4 -20
-12 -12 -53 -7 -53 6 0 28 30 37 49 14z"/>
<path d="M6530 6200 c0 -5 5 -10 10 -10 6 0 10 5 10 10 0 6 -4 10 -10 10 -5 0
-10 -4 -10 -10z"/>
<path d="M6527 6140 c-6 -13 -15 -66 -47 -280 -4 -30 -11 -73 -15 -95 -5 -26
-4 -36 2 -30 6 6 16 44 23 85 7 41 16 89 20 105 25 95 38 264 17 215z"/>
<path d="M7819 6076 c-4 -4 -207 -40 -404 -72 -49 -8 -124 -20 -165 -28 -41
-8 -110 -20 -153 -27 -43 -7 -85 -18 -93 -26 -9 -9 -14 -38 -15 -81 0 -37 -2
-101 -4 -142 -2 -41 -8 -244 -14 -450 -17 -589 -33 -924 -43 -937 -11 -13 -34
-7 -58 16 -9 9 -56 53 -103 99 -48 45 -92 82 -97 82 -6 0 -10 7 -10 15 0 8 -3
15 -8 15 -4 0 -27 18 -51 40 -24 22 -47 37 -50 34 -3 -4 0 -9 7 -11 6 -3 10
-9 6 -14 -5 -9 -17 0 -157 136 -40 39 -120 114 -178 168 -194 179 -265 252
-281 287 -9 19 -15 36 -13 38 7 8 87 14 233 19 83 3 152 9 152 14 0 7 -223 16
-255 9 -5 -1 -45 1 -88 5 -77 7 -79 8 -140 61 -34 30 -67 54 -73 54 -6 0 -24
-6 -40 -14 -16 -8 -72 -31 -124 -51 l-95 -36 -490 6 c-955 12 -997 12 -1006
-5 -11 -22 -193 -537 -208 -590 -7 -25 -18 -55 -23 -67 -18 -36 -1 -43 45 -18
63 35 178 73 302 100 164 35 216 41 395 44 78 1 110 4 100 11 -8 5 -28 10 -45
10 -57 0 -101 19 -114 48 -18 39 -108 169 -155 224 -23 27 -76 74 -118 105
-145 109 -146 108 382 106 425 -1 710 -9 783 -22 16 -3 5 -17 -25 -33 -45 -22
-227 -98 -236 -98 -5 0 -13 -5 -20 -12 -13 -13 32 -59 213 -213 39 -33 72 -63
75 -66 3 -3 25 -21 50 -40 25 -19 100 -79 168 -134 68 -55 137 -110 155 -123
18 -12 43 -33 57 -46 21 -19 117 -98 303 -250 95 -77 97 -80 85 -122 -5 -22
-32 -82 -58 -134 -65 -130 -77 -152 -88 -159 -6 -3 -95 -175 -200 -381 -301
-594 -332 -654 -346 -668 -10 -11 -26 -6 -84 24 -40 20 -80 46 -90 58 -9 13
-31 26 -47 30 l-30 8 35 30 c55 46 70 52 70 28 0 -31 25 -24 70 21 85 86 140
222 147 364 4 89 21 175 34 175 4 0 12 -7 19 -15 19 -23 40 -18 40 9 0 84 -64
252 -117 308 -14 14 -22 31 -19 37 4 7 42 11 92 11 66 0 84 3 84 14 0 10 -20
19 -57 26 -71 15 -200 49 -231 61 -13 5 -30 9 -38 9 -9 0 -40 7 -70 16 -47 14
-58 22 -90 69 -72 109 -90 118 -334 156 -209 33 -201 33 -239 7 -20 -13 -39
-38 -46 -57 -6 -19 -27 -48 -47 -65 -66 -56 -199 -228 -243 -314 l-28 -53 17
-62 c10 -34 17 -70 17 -79 0 -10 -1 -24 -1 -30 0 -7 2 -26 5 -43 5 -26 1 -33
-28 -52 -39 -27 -67 -29 -107 -8 -36 19 -44 9 -46 -60 -1 -50 35 -145 56 -145
5 0 14 -9 20 -21 11 -20 10 -20 -34 -14 -38 6 -46 5 -46 -9 0 -9 9 -21 19 -28
15 -9 17 -15 8 -29 -20 -33 84 -115 163 -128 25 -5 35 -12 35 -24 0 -26 24
-37 83 -37 56 0 58 -3 40 -41 -8 -18 -45 -41 -127 -81 -179 -86 -511 -268
-511 -281 0 -6 25 -35 56 -63 52 -49 62 -74 29 -74 -7 0 -15 -3 -17 -7 -1 -5
-32 -23 -68 -42 -36 -19 -104 -61 -151 -93 l-86 -58 -79 20 c-68 18 -89 19
-146 10 -81 -12 -205 -13 -212 -1 -3 4 -12 118 -21 252 -8 134 -21 348 -29
474 -8 127 -18 284 -21 350 -3 66 -12 212 -20 325 -27 379 -35 504 -46 695 -6
105 -12 210 -14 235 -8 84 -25 354 -45 690 -30 513 -29 503 -48 494 -23 -11
-70 -10 -242 5 -80 6 -232 10 -340 8 -161 -4 -206 -8 -260 -25 -36 -11 -94
-23 -130 -26 -136 -12 -330 -60 -465 -115 -173 -71 -435 -223 -530 -308 -11
-10 -47 -40 -80 -68 -172 -142 -377 -410 -489 -638 -63 -129 -88 -186 -106
-242 -7 -22 -17 -51 -22 -65 -14 -36 -53 -202 -68 -290 -6 -41 -16 -88 -21
-104 -12 -38 -12 -469 0 -515 5 -20 15 -70 21 -111 41 -264 164 -578 317 -810
75 -114 248 -327 305 -375 40 -34 103 -87 168 -140 25 -20 53 -43 63 -51 9 -8
19 -14 21 -14 2 0 37 -22 79 -50 42 -28 78 -50 80 -50 3 0 34 -16 69 -36 34
-20 113 -54 173 -76 215 -76 308 -105 370 -113 28 -3 59 -10 70 -15 31 -13 96
-23 137 -21 22 2 38 -2 38 -8 0 -6 3 -10 8 -10 17 3 29 -2 48 -19 11 -10 38
-32 59 -48 39 -28 90 -71 127 -107 10 -9 23 -17 28 -17 20 0 9 16 -22 35 -18
10 -60 46 -93 79 -106 106 -219 210 -280 256 -68 51 -75 59 -69 75 3 6 37 33
76 61 39 27 85 61 103 77 52 43 194 112 207 99 15 -15 4 -27 -49 -52 -56 -26
-125 -70 -136 -87 -4 -7 -12 -13 -18 -13 -5 0 -25 -10 -44 -22 -26 -17 -35
-30 -35 -50 0 -16 5 -28 11 -28 7 0 48 -36 93 -79 97 -95 223 -201 238 -201 6
0 36 -27 66 -61 31 -33 73 -72 95 -86 46 -29 89 -67 160 -141 53 -56 68 -61
113 -37 16 8 39 15 50 15 12 0 38 13 59 30 20 16 46 32 58 36 24 8 80 45 85
57 2 4 10 7 18 7 8 0 23 13 32 30 9 16 21 30 26 30 5 0 17 7 27 16 9 8 27 14
39 12 19 -2 7 -15 -66 -74 -49 -39 -110 -83 -136 -97 -25 -15 -70 -48 -98 -74
-75 -68 -107 -85 -141 -78 -16 4 -32 13 -37 21 -8 14 -83 57 -89 50 -2 -1 28
-31 67 -65 65 -58 174 -119 242 -136 43 -11 50 -26 38 -81 -6 -27 -13 -57 -16
-68 -4 -11 -2 -16 4 -12 5 3 15 28 22 56 9 38 21 57 48 78 61 48 76 52 188 52
129 0 132 18 4 22 l-85 3 38 24 c21 13 47 32 56 43 17 17 36 19 215 21 108 2
200 1 205 -2 4 -4 5 -26 2 -51 l-6 -45 -100 -6 -100 -5 101 -2 c110 -2 120 -8
108 -57 -6 -25 3 -65 14 -65 4 0 7 24 8 52 1 136 17 288 31 288 15 0 18 26 3
35 -13 8 -13 44 1 84 17 49 109 88 109 45 0 -7 -14 -21 -31 -29 -39 -21 -33
-39 17 -45 24 -3 33 -7 23 -12 -8 -3 -28 -3 -44 -1 l-28 6 8 -44 c4 -24 11
-78 15 -118 7 -69 6 -78 -16 -113 -13 -21 -24 -44 -24 -52 0 -28 49 -122 79
-150 17 -17 31 -35 31 -41 0 -18 63 -95 72 -89 5 3 13 17 18 30 11 27 26 30
65 12 27 -12 31 -31 15 -73 -13 -35 -31 -40 -72 -18 -139 73 -141 73 -122 51
30 -32 136 -98 159 -98 28 0 65 40 65 69 0 33 58 87 105 96 l40 8 -40 9 c-41
9 -87 7 -117 -7 -13 -5 -28 3 -54 29 -29 29 -35 41 -30 61 4 16 1 34 -9 48 -8
12 -15 29 -15 39 0 23 44 51 69 43 10 -3 22 -1 26 5 3 5 -3 10 -14 10 -24 0
-33 13 -25 34 13 34 63 5 64 -36 0 -10 6 -18 14 -18 7 0 19 -7 26 -15 16 -19
49 -19 75 1 17 12 121 14 788 13 l768 -1 47 -23 c61 -30 151 -70 179 -79 11
-4 28 -22 38 -41 9 -19 20 -35 25 -35 6 0 10 -9 10 -19 0 -18 -22 -19 -912
-16 -502 1 -906 1 -898 -1 62 -13 1804 -34 1816 -21 4 3 16 2 29 -3 13 -5 26
-6 30 -2 3 4 19 7 35 8 56 3 78 13 88 42 12 34 76 102 97 102 8 0 15 6 15 14
0 8 9 21 20 29 11 8 18 16 16 18 -2 2 33 38 78 79 108 99 219 233 227 274 3
17 13 43 23 58 11 17 18 49 19 83 1 30 4 55 7 55 3 0 14 -9 23 -21 12 -13 24
-18 35 -14 20 8 169 8 181 1 5 -3 69 -10 142 -16 74 -5 188 -14 254 -19 137
-11 188 -5 193 24 2 11 7 29 12 40 4 11 16 88 25 170 16 153 33 297 60 530 9
72 20 171 26 220 5 50 13 115 19 145 5 30 12 101 16 158 4 56 11 105 15 108 5
3 9 22 9 43 0 37 33 177 44 188 11 11 36 -20 36 -43 0 -14 4 -32 10 -42 5 -9
14 -46 20 -82 6 -36 17 -103 25 -150 8 -47 23 -125 34 -175 32 -148 45 -230
82 -505 11 -85 27 -189 36 -230 34 -174 53 -288 53 -328 0 -50 14 -82 36 -82
8 0 43 -10 77 -21 34 -12 87 -23 117 -24 30 -2 96 -8 145 -14 396 -46 635 -63
704 -52 29 5 61 7 70 5 9 -3 22 0 30 5 13 9 3 29 -187 391 -27 52 -85 163
-127 245 -43 83 -99 189 -124 238 -25 48 -86 165 -135 260 -49 94 -105 201
-124 237 -19 36 -79 151 -133 255 -54 105 -109 210 -122 235 -149 289 -214
415 -239 465 -17 33 -34 68 -39 77 -15 30 -10 73 11 96 11 12 20 26 20 32 0 6
32 43 70 82 39 40 70 74 70 77 0 12 48 61 59 61 6 0 11 4 11 8 0 5 17 26 38
48 21 21 62 66 91 99 29 33 85 94 125 135 39 42 103 111 141 154 39 43 92 102
119 130 28 28 71 76 97 106 26 30 72 82 103 114 31 33 56 61 56 63 0 3 29 35
64 71 180 188 237 258 256 318 7 19 15 34 20 34 5 0 12 10 15 21 4 12 19 33
34 46 l26 24 -35 -4 c-54 -7 -263 -49 -285 -57 -11 -5 -36 -11 -55 -14 -51 -8
-173 -32 -380 -77 -247 -53 -388 -82 -415 -86 -16 -3 -47 -22 -68 -42 -41 -39
-147 -184 -147 -201 0 -5 -4 -10 -8 -10 -4 0 -40 -45 -80 -99 -40 -55 -78
-106 -85 -113 -7 -7 -40 -47 -74 -88 -33 -42 -67 -81 -76 -88 -26 -22 -28 12
-8 151 28 186 49 342 56 412 3 33 19 125 35 205 15 80 34 183 40 230 7 47 17
90 21 96 5 6 7 13 4 15 -2 3 0 22 5 44 19 79 39 242 41 335 l2 95 -29 3 c-17
2 -32 1 -35 -2z m-5279 -1715 c0 -5 -13 -11 -30 -14 -21 -5 -30 -12 -30 -27 0
-13 -7 -20 -20 -20 -19 0 -70 -19 -80 -30 -23 -25 -140 -42 -140 -20 0 6 8 10
18 10 10 0 33 13 51 29 27 24 39 28 66 24 25 -4 36 -1 47 16 18 25 118 53 118
32z m-265 -10 c7 -12 -25 -30 -42 -24 -16 6 -17 -9 -1 -25 10 -10 2 -11 -35
-6 -38 5 -48 4 -53 -10 -3 -9 -12 -16 -20 -16 -7 0 -38 -11 -67 -24 -52 -23
-107 -31 -107 -16 0 13 122 73 205 101 88 30 111 34 120 20z m475 -18 c24 -13
24 -14 -17 -11 -24 2 -43 -1 -43 -6 0 -20 -35 -46 -62 -46 -41 0 -46 25 -13
60 23 24 32 27 68 23 23 -3 53 -12 67 -20z m147 -60 c35 -20 41 -28 32 -39 -6
-8 -19 -14 -29 -14 -10 0 -23 -7 -30 -15 -7 -8 -18 -15 -26 -15 -7 0 -22 -10
-33 -21 -15 -16 -28 -20 -55 -17 -27 3 -36 0 -36 -11 0 -11 -4 -11 -19 3 -30
27 -16 66 24 66 32 0 78 43 63 58 -7 7 -6 15 3 26 17 20 47 14 106 -21z m-351
13 c16 -17 19 -36 4 -36 -6 0 -15 -11 -20 -25 -12 -32 -55 -52 -100 -46 -22 3
-8 32 23 45 19 9 25 15 15 15 -26 1 -22 16 7 29 14 6 25 16 25 22 0 15 29 12
46 -4z m-619 -100 c-7 -15 -16 -21 -21 -16 -6 6 -4 15 4 25 19 23 29 18 17 -9z
m253 20 c0 -3 -4 -8 -10 -11 -5 -3 -10 -1 -10 4 0 6 5 11 10 11 6 0 10 -2 10
-4z m200 -6 c0 -5 -7 -10 -15 -10 -8 0 -15 5 -15 10 0 6 7 10 15 10 8 0 15 -4
15 -10z m38 -54 c-10 -7 -16 -15 -14 -17 10 -10 -78 -8 -90 2 -20 16 -17 29 6
29 11 0 20 -4 20 -10 0 -10 21 -10 30 1 3 3 14 11 25 17 27 15 47 -4 23 -22z
m-450 11 c13 -15 5 -57 -10 -57 -6 0 -7 -7 -4 -15 3 -8 9 -22 12 -30 5 -12 2
-13 -17 -7 -15 6 -32 4 -51 -6 -16 -7 -36 -11 -45 -8 -13 5 -15 -1 -11 -41 3
-27 3 -42 1 -35 -3 6 -9 9 -15 6 -24 -15 18 -21 51 -7 43 18 118 25 127 12 3
-5 10 -7 15 -3 5 3 8 0 7 -7 -3 -13 3 -15 42 -18 32 -2 24 -28 -23 -74 l-44
-43 -16 29 c-10 16 -17 35 -17 42 0 8 -6 18 -13 22 -8 4 -16 16 -20 26 -3 9
-12 17 -20 17 -16 0 -63 -100 -71 -150 -6 -37 -31 -65 -72 -81 -34 -12 -35
-12 -24 15 10 28 0 41 -42 48 -19 4 -28 1 -28 -8 0 -8 6 -14 13 -15 9 0 9 -2
0 -5 -19 -8 -53 15 -53 37 0 25 28 80 48 95 8 6 12 16 8 22 -8 14 24 78 58
114 14 15 26 31 26 35 0 11 59 63 71 63 5 0 9 7 9 15 0 18 17 20 23 3 3 -10
11 -9 33 4 35 21 39 21 52 5z m2902 -14 c26 -12 44 -29 55 -53 9 -19 31 -60
50 -90 19 -30 35 -61 35 -67 0 -25 -28 -12 -53 25 -72 106 -124 157 -187 179
-27 10 -50 22 -50 27 0 14 106 -1 150 -21z m-2226 1 c3 -8 0 -25 -6 -37 -7
-12 -12 -25 -11 -28 1 -3 -10 -7 -25 -7 -15 -1 -54 -3 -87 -5 -55 -3 -135 -35
-170 -68 -5 -5 -20 -9 -34 -9 -23 0 -23 1 -7 19 17 18 16 19 -3 26 -11 3 -18
12 -15 20 8 21 -15 29 -35 11 -10 -9 -22 -16 -28 -16 -6 0 -16 -7 -23 -15 -18
-21 -40 -19 -40 5 0 11 -4 20 -9 20 -4 0 -20 -9 -34 -20 -34 -27 -40 -25 -35
8 3 25 1 28 -18 24 -12 -2 -24 1 -28 6 -7 12 29 26 44 17 6 -4 25 -2 43 3 17
6 61 13 98 16 56 5 68 3 87 -14 12 -11 19 -27 16 -35 -5 -13 -1 -12 25 2 17
10 31 21 31 26 0 4 16 7 35 7 32 0 51 6 135 43 46 21 86 21 94 1z m288 -84
c18 -11 41 -20 51 -20 14 0 17 -7 15 -40 -3 -34 -6 -40 -23 -38 -13 2 -20 11
-20 27 0 13 -6 26 -13 29 -9 3 -12 -3 -10 -14 2 -13 -4 -20 -19 -22 -18 -3
-23 2 -23 17 0 12 -3 22 -7 22 -42 7 -61 10 -75 12 -10 1 -18 5 -18 10 0 4 16
5 35 1 23 -4 35 -2 35 5 0 6 7 11 15 11 8 0 15 5 15 10 0 14 5 13 42 -10z
m-852 -60 c0 -5 -6 -10 -14 -10 -8 0 -18 5 -21 10 -3 6 3 10 14 10 12 0 21 -4
21 -10z m3150 -250 c0 -5 -7 -10 -16 -10 -8 0 -12 5 -9 10 3 6 10 10 16 10 5
0 9 -4 9 -10z m-3536 -9 c3 -5 -1 -11 -9 -15 -9 -3 -15 0 -15 9 0 16 16 20 24
6z m3700 -49 c25 -33 51 -82 60 -113 9 -30 20 -61 26 -69 17 -27 24 0 12 47
-7 25 -10 48 -8 51 10 9 34 -18 41 -45 5 -20 9 -23 18 -14 18 18 -20 81 -55
88 -30 6 -37 20 -13 29 51 20 96 -38 97 -123 0 -55 -30 -117 -58 -121 -19 -3
-21 -10 -22 -60 -1 -91 -42 -187 -108 -255 -70 -72 -128 -103 -227 -123 -183
-37 -360 15 -502 148 -34 32 -65 58 -69 58 -4 0 -11 -12 -16 -26 -9 -24 -14
-26 -50 -21 -76 10 -144 82 -164 173 -13 59 25 114 78 114 46 0 82 -36 77 -77
-5 -39 76 -4 140 59 20 21 40 32 54 30 32 -4 68 75 73 161 2 37 8 67 12 67 5
0 60 -13 122 -29 62 -16 139 -32 171 -36 l59 -8 46 45 c71 68 125 108 144 108
9 0 37 -26 62 -58z m-3495 -4 c13 -22 13 -29 2 -42 -17 -21 -45 -2 -38 26 4
14 -1 18 -19 18 -15 0 -24 6 -24 16 0 27 62 14 79 -18z m335 10 c19 -12 39
-31 46 -41 22 -36 1 -29 -47 17 -52 50 -52 58 1 24z m-561 -79 c33 -60 23 -77
-26 -43 -30 20 -37 31 -37 59 0 18 3 41 6 50 8 19 14 12 57 -66z m499 38 c32
-25 42 -69 17 -74 -28 -7 -69 15 -69 37 0 25 -8 25 -36 -1 -23 -22 -44 -19
-44 6 0 21 49 55 79 55 14 0 38 -10 53 -23z m-457 3 c3 -5 1 -10 -4 -10 -6 0
-11 5 -11 10 0 6 2 10 4 10 3 0 8 -4 11 -10z m813 -26 c-4 -23 -110 -94 -144
-97 -21 -1 -29 3 -32 17 -2 11 -14 27 -26 37 -11 9 -18 20 -14 24 3 4 42 11
84 16 43 6 80 12 83 15 2 2 15 4 28 4 17 0 23 -5 21 -16z m-600 -53 c11 -7 11
-9 -1 -14 -16 -6 -27 0 -27 15 0 10 11 10 28 -1z m-30 -42 c12 -8 22 -23 22
-33 0 -19 1 -19 23 1 12 11 30 23 40 26 9 4 17 13 17 22 0 39 83 12 180 -59
82 -60 122 -106 115 -134 -4 -15 0 -24 10 -28 16 -7 45 -54 45 -75 0 -8 -12
-9 -37 -4 l-38 7 23 -24 c31 -34 28 -48 -12 -48 -25 0 -43 8 -65 31 -17 17
-31 27 -31 22 0 -5 4 -13 9 -18 4 -6 12 -23 15 -39 l7 -29 -83 6 c-109 9 -202
41 -256 91 -88 80 -122 128 -101 142 8 4 4 13 -12 25 -21 16 -22 21 -11 39 7
11 10 25 6 31 -3 6 1 18 10 27 8 9 25 27 36 40 19 21 24 22 43 9 12 -8 32 -20
45 -28z m779 -10 c4 -14 10 -18 22 -13 61 28 169 3 140 -32 -6 -8 -19 -14 -28
-14 -24 0 -116 -35 -148 -56 -15 -11 -46 -28 -68 -39 -22 -11 -48 -28 -59 -37
-10 -9 -31 -22 -46 -28 -15 -6 -30 -20 -33 -31 -3 -10 -10 -19 -16 -19 -14 0
-14 17 0 25 5 4 8 19 5 33 -3 15 -1 54 3 87 7 48 10 55 16 36 7 -20 12 -22 43
-17 43 7 63 23 43 35 -8 5 -11 16 -8 26 4 9 11 13 17 10 6 -3 24 7 41 24 36
36 68 40 76 10z m-1027 -20 c0 -5 9 -9 21 -9 16 0 20 -5 17 -27 -2 -22 -8 -27
-23 -25 -27 5 -34 12 -41 50 -6 27 -4 31 10 26 9 -3 16 -10 16 -15z m1214 -97
c14 -21 26 -45 26 -53 0 -8 -21 -25 -46 -37 -44 -22 -48 -22 -73 -6 -42 27
-81 66 -75 76 6 9 24 18 94 44 47 18 44 19 74 -24z m-1187 -13 c6 -6 9 -18 6
-25 -7 -18 23 -19 30 -1 4 8 12 4 26 -13 11 -14 21 -28 21 -31 0 -4 16 -23 36
-43 l35 -35 -28 -36 c-15 -19 -31 -35 -35 -35 -12 0 -19 18 -8 25 5 3 10 12
10 18 0 7 -4 6 -10 -3 -8 -13 -11 -13 -24 0 -8 8 -28 44 -46 80 -17 36 -35 73
-41 82 -5 10 -9 20 -9 23 0 9 26 5 37 -6z m1033 -79 c35 -42 40 -53 30 -65 -7
-8 -21 -15 -31 -15 -27 0 -34 -20 -7 -21 l23 -2 -23 -4 c-19 -4 -23 -9 -18
-29 6 -22 3 -24 -31 -26 -62 -3 -106 3 -138 17 -16 7 -38 15 -47 19 -23 7 -22
15 3 46 23 27 43 29 165 15 48 -5 73 -4 78 3 8 13 -28 34 -52 31 -17 -3 -80
10 -95 18 -8 5 78 61 95 62 3 1 25 -22 48 -49z m238 -39 l21 -29 -40 -21 c-22
-12 -46 -21 -54 -21 -9 0 -24 -6 -35 -12 -15 -10 -22 -10 -32 0 -9 9 -9 12 0
12 14 0 52 36 51 48 0 4 14 17 33 29 18 12 33 22 34 22 0 1 10 -12 22 -28z
m3949 -91 c2 -22 -1 -63 -7 -92 -5 -29 -12 -66 -14 -83 -10 -77 -47 -285 -76
-430 -18 -88 -43 -214 -55 -280 -13 -66 -24 -113 -24 -105 -1 13 -2 13 -11 0
-6 -8 -7 -27 -4 -42 3 -16 1 -28 -4 -28 -5 0 -15 -28 -21 -62 -18 -96 -31
-160 -41 -198 -5 -19 -14 -69 -20 -110 -6 -41 -15 -97 -20 -125 -5 -27 -11
-66 -14 -85 -3 -19 -8 -45 -12 -58 -6 -19 -1 -25 35 -40 38 -16 54 -32 31 -32
-5 0 -10 -6 -10 -14 0 -8 -11 -23 -24 -33 -13 -10 -58 -65 -101 -123 -75 -103
-138 -169 -162 -170 -7 0 24 47 68 105 44 58 77 110 73 116 -3 5 0 16 6 24 19
22 2 18 -23 -6 -32 -31 -86 -63 -139 -83 -26 -9 -74 -35 -108 -57 -71 -46 -86
-48 -94 -14 -5 19 -13 25 -32 25 -27 0 -27 0 -8 46 3 6 -10 24 -28 40 -19 16
-44 46 -56 66 l-23 37 25 16 c32 21 39 41 23 66 -10 17 -9 22 6 33 9 7 17 19
17 26 0 34 89 206 126 244 28 28 41 34 94 39 57 5 64 8 97 46 19 23 41 41 49
41 17 0 28 41 19 70 -4 12 -1 27 5 35 13 16 6 65 -10 65 -6 0 -10 -9 -10 -20
0 -30 -24 -35 -83 -16 -64 19 -116 24 -117 11 -1 -5 22 -15 51 -22 102 -23
146 -52 133 -87 -10 -26 -34 -26 -84 -1 -47 24 -127 55 -142 55 -22 0 -4 -20
26 -30 19 -6 55 -27 80 -46 40 -30 45 -38 36 -55 -16 -29 -42 -23 -107 21 -61
43 -152 67 -185 49 -10 -5 -21 -32 -28 -65 -14 -65 -38 -94 -79 -94 -42 0 -47
16 -16 56 l27 35 -24 57 c-20 46 -23 63 -16 92 8 28 7 36 -9 47 -10 7 -25 19
-33 26 -36 32 -188 161 -214 183 -24 21 -27 28 -19 47 6 12 22 28 36 36 24 13
29 12 64 -15 21 -15 40 -32 41 -36 2 -4 10 -8 17 -8 13 0 148 -92 190 -130 30
-27 68 -29 142 -9 115 32 283 21 283 -18 0 -13 -15 -14 -90 -12 -55 3 -90 0
-90 -6 0 -5 19 -11 42 -12 24 -2 67 -8 97 -14 43 -9 55 -8 62 2 11 18 12 59 1
59 -14 0 -32 71 -22 89 21 39 70 152 70 161 0 6 5 10 10 10 6 0 10 6 10 14 0
8 36 86 80 173 44 87 87 179 96 206 9 26 19 47 24 47 5 0 14 17 21 37 6 21 18
44 26 51 7 7 13 20 13 29 0 17 41 96 53 101 4 2 7 12 7 21 0 10 14 37 31 61
17 23 35 56 41 72 13 36 20 29 25 -22z m-3852 -10 c7 -21 0 -40 -16 -40 -5 0
-9 14 -9 30 0 34 15 40 25 10z m-1040 -34 c48 -17 48 -28 2 -41 -19 -5 -45
-19 -56 -29 -23 -21 -67 -30 -76 -16 -3 5 -1 12 5 15 6 4 22 24 36 46 27 43
32 45 89 25z m440 4 c3 -5 21 -10 38 -10 32 0 101 -20 113 -33 4 -4 -5 -7 -19
-7 -20 0 -27 -5 -27 -19 0 -10 -7 -21 -15 -25 -13 -5 -13 -8 2 -24 17 -17 18
-17 23 2 5 18 6 18 23 2 21 -21 7 -56 -23 -56 -11 0 -20 -4 -20 -9 0 -5 -13
-12 -30 -16 -16 -4 -30 -10 -30 -14 0 -11 -70 -42 -80 -36 -5 3 -12 0 -15 -5
-4 -6 -17 -10 -28 -9 -41 3 -52 -2 -27 -12 36 -14 8 -28 -38 -19 -46 9 -135
33 -142 38 -5 4 172 172 182 172 4 0 33 -15 65 -34 80 -47 103 -53 103 -27 0
11 -9 22 -20 26 -11 3 -20 11 -20 16 0 5 -7 9 -15 9 -26 0 -75 30 -75 45 0 8
6 15 13 15 7 0 18 9 25 20 13 22 27 26 37 10z m545 -20 c0 -5 -4 -10 -10 -10
-5 0 -10 5 -10 10 0 6 5 10 10 10 6 0 10 -4 10 -10z m-907 -67 c-4 -10 -9 -20
-13 -23 -3 -3 -19 -22 -34 -42 -16 -21 -31 -38 -35 -38 -3 0 -19 11 -36 25
-25 20 -27 26 -16 34 9 6 22 6 32 0 10 -5 19 -5 21 -1 3 7 78 62 85 62 1 0 -1
-8 -4 -17z m941 -30 c-21 -20 -68 -51 -103 -70 -56 -30 -65 -33 -73 -19 -8 14
-14 13 -48 -9 -40 -26 -80 -33 -80 -15 0 6 6 10 14 10 18 0 67 26 61 32 -5 5
0 6 55 11 45 4 97 28 135 60 16 15 38 28 50 30 11 2 22 5 24 6 3 0 -13 -15
-35 -36z m-209 2 c0 -14 -8 -19 -27 -20 -36 -2 -50 8 -42 29 9 25 69 17 69 -9z
m2035 -58 c30 -9 66 -19 80 -21 14 -3 30 -15 35 -27 6 -14 27 -28 53 -37 45
-15 50 -26 27 -59 -21 -29 -78 -47 -129 -39 -45 7 -156 60 -188 90 l-21 19 26
19 c14 10 29 32 32 49 4 17 12 28 18 26 7 -2 37 -12 67 -20z m-2172 -74 c-4
-22 -22 -20 -26 1 -2 10 3 16 13 16 10 0 15 -7 13 -17z m-70 -48 c-9 -9 -98
-14 -98 -6 0 6 19 11 43 13 40 3 62 0 55 -7z m-113 -304 c0 -8 -15 -19 -34
-26 -19 -6 -37 -17 -39 -23 -5 -17 38 -15 81 3 41 17 57 19 57 7 0 -8 -34 -24
-107 -53 -23 -9 -31 -33 -14 -43 5 -4 38 7 73 24 65 31 93 37 102 21 4 -5 -14
-17 -39 -27 -49 -18 -55 -28 -27 -43 14 -7 25 -6 41 5 35 25 81 35 81 19 0 -8
-10 -17 -22 -20 -13 -4 -34 -14 -46 -22 -23 -14 -23 -15 -5 -28 17 -13 17 -14
-2 -20 -11 -4 -34 -13 -52 -21 -38 -17 -58 -18 -75 -1 -7 6 -39 31 -70 55 -32
23 -58 46 -58 50 0 5 -20 21 -45 36 -25 16 -45 32 -45 37 0 4 26 16 58 27 31
11 80 30 107 40 56 23 80 23 80 3z m1508 -180 c34 -21 50 -51 27 -51 -8 0 -97
-56 -110 -70 -16 -17 -89 -70 -96 -70 -8 0 -134 -117 -134 -124 0 -2 9 -28 19
-59 19 -56 19 -56 0 -82 -28 -35 -52 -32 -67 9 -9 24 -22 38 -44 45 -38 14
-34 14 -52 -5 -9 -8 -16 -29 -16 -45 0 -23 -4 -29 -21 -29 -19 0 -20 4 -14 51
6 41 4 51 -6 47 -8 -3 -15 -15 -17 -27 -3 -16 -9 -21 -25 -19 -22 3 -23 6 -15
67 2 13 -2 26 -9 28 -6 2 -13 -6 -15 -19 -2 -13 -10 -23 -18 -23 -11 0 -16 14
-18 53 -2 28 -7 52 -13 52 -5 0 -9 -4 -9 -10 0 -5 -7 -10 -16 -10 -14 0 -15 8
-9 58 4 31 10 61 15 66 14 15 132 10 192 -7 56 -17 58 -17 100 5 24 12 63 36
88 53 25 17 52 34 60 38 8 4 51 29 95 56 44 27 82 48 85 47 3 -1 22 -12 43
-25z m160 -98 c90 -55 88 -49 47 -180 -28 -88 -24 -103 30 -103 49 0 50 -7 15
-114 -30 -91 -30 -92 -7 -101 33 -13 177 -35 230 -35 63 0 65 -9 21 -87 -38
-67 -55 -74 -219 -103 -69 -12 -183 -33 -255 -46 -211 -39 -210 -39 -239 -18
-15 11 -26 29 -26 43 0 34 -34 84 -90 133 l-48 43 15 75 c15 73 17 76 57 96
37 19 41 25 44 64 2 23 -2 56 -7 73 -14 40 -10 44 164 175 77 58 144 111 148
119 13 22 38 15 120 -34z m-881 -179 c7 -8 25 -29 41 -46 15 -17 27 -38 27
-47 1 -9 19 -32 41 -51 22 -19 51 -45 64 -57 13 -12 33 -24 44 -28 21 -6 35
-31 25 -46 -10 -17 -33 -9 -71 26 -21 19 -91 80 -155 136 -65 56 -118 105
-118 110 0 21 85 24 102 3z m-874 -244 c39 -33 72 -64 72 -69 0 -5 -13 -14
-30 -21 -16 -7 -30 -20 -30 -29 0 -9 32 -38 71 -66 39 -27 77 -58 86 -67 20
-22 56 -23 73 -3 17 21 37 19 63 -5 18 -18 20 -22 7 -30 -8 -5 -12 -10 -7 -11
4 -1 10 -2 15 -3 29 -6 86 -45 137 -92 33 -31 69 -62 79 -69 18 -13 18 -16 2
-49 -21 -45 -110 -110 -150 -111 -25 0 -34 -6 -45 -32 -8 -18 -19 -33 -24 -33
-5 0 -28 19 -52 43 -23 23 -54 50 -69 60 -14 10 -26 27 -26 37 0 14 -7 20 -21
20 -12 0 -34 11 -48 25 -54 52 -98 84 -124 90 -15 4 -27 11 -27 17 0 12 -124
135 -166 165 -52 37 -124 113 -124 131 0 42 151 96 171 61 9 -17 79 -25 79
-10 0 5 8 12 18 14 9 3 0 5 -20 6 -20 0 -40 6 -43 11 -3 6 -16 10 -28 10 -16
0 -10 6 23 24 24 13 46 29 48 35 6 18 13 14 90 -49z m314 0 c13 -17 36 -46 51
-65 l28 -34 -53 -39 c-58 -43 -117 -76 -124 -69 -3 2 22 21 55 42 33 21 63 45
66 54 4 9 -8 27 -32 48 -44 38 -44 38 -84 17 -61 -31 -41 1 40 63 23 18 27 16
53 -17z m-48 -86 c21 -8 20 -17 -4 -32 -17 -10 -23 -10 -35 1 -10 11 -11 17
-2 26 13 13 19 13 41 5z m-98 -86 c-15 -10 -40 17 -31 32 5 8 12 6 25 -7 12
-12 14 -20 6 -25z m991 -104 c-3 -3 -12 -4 -19 -1 -8 3 -5 6 6 6 11 1 17 -2
13 -5z m99 -18 c18 -14 18 -15 -9 -25 -16 -6 -33 -11 -38 -11 -13 0 -43 -30
-32 -31 25 -3 67 4 90 16 33 17 80 1 62 -22 -6 -7 -21 -13 -33 -13 -28 0 -50
-15 -42 -29 8 -12 52 -5 73 11 20 16 68 5 68 -16 0 -14 -22 -25 -104 -52 -57
-19 -106 -34 -110 -34 -3 1 -46 38 -95 84 l-88 83 44 22 c57 27 62 27 42 -4
-19 -30 -14 -41 13 -26 10 5 40 17 66 27 26 9 50 21 53 25 7 13 17 11 40 -5z
m749 -16 c3 -5 1 -15 -4 -22 -6 -7 -19 -24 -29 -37 -15 -20 -39 -27 -153 -48
-73 -13 -163 -28 -199 -33 -144 -21 -133 -16 -127 -65 2 -24 2 -46 0 -49 -7
-6 -99 40 -108 54 -18 29 -153 -16 -156 -53 -1 -6 -2 -23 -2 -37 -2 -25 -4
-25 -97 -28 l-95 -3 54 55 c48 49 57 54 87 49 21 -4 42 0 56 9 23 15 84 36
171 58 38 10 47 17 47 34 0 19 9 23 73 35 39 7 90 17 112 22 22 5 102 18 178
29 77 11 146 24 155 30 22 12 29 12 37 0z m-1055 -50 c0 -5 -4 -10 -9 -10 -5
0 -23 -12 -40 -26 -20 -17 -37 -24 -49 -19 -13 5 -8 11 25 26 23 10 45 24 48
29 8 13 25 13 25 0z m1703 -30 c39 -23 84 -52 101 -66 17 -14 65 -49 106 -79
41 -30 85 -63 97 -74 12 -12 25 -21 28 -21 3 0 48 -42 99 -92 52 -51 117 -115
145 -142 28 -27 51 -53 51 -58 0 -4 -326 -7 -725 -6 -399 2 -725 5 -725 8 0 7
30 19 171 70 l107 39 378 2 c435 2 450 2 458 10 4 3 1 11 -6 16 -12 10 -196
93 -205 93 -16 0 16 -22 72 -49 36 -17 64 -35 61 -40 -8 -13 -688 -9 -693 4
-2 6 16 18 39 29 24 10 58 29 77 44 34 25 36 25 197 23 111 -2 164 1 164 8 0
6 -21 12 -47 12 -168 4 -235 8 -240 12 -3 3 22 41 54 84 32 43 80 108 106 146
27 37 51 67 54 67 3 0 38 -18 76 -40z m-1830 -70 c-44 -41 -74 -41 -35 -1 14
16 27 22 62 30 3 0 -9 -13 -27 -29z m837 -99 c0 -67 -1 -69 -27 -75 -16 -3
-38 -8 -49 -12 -18 -5 -24 0 -32 28 -6 18 -13 52 -17 74 l-6 42 58 9 c32 5 61
8 66 6 4 -3 7 -35 7 -72z m1906 14 c4 -8 10 -15 15 -15 12 0 59 -42 59 -53 0
-5 -13 -23 -29 -40 -56 -60 -91 -102 -91 -109 0 -15 -30 -8 -47 10 -61 63 -61
55 -6 119 28 32 55 68 62 81 14 25 29 29 37 7z m-2347 -123 c9 -15 3 -102 -8
-114 -3 -4 -64 -7 -136 -8 -206 -2 -235 -1 -235 9 0 10 128 115 150 123 8 3
61 5 118 4 74 -1 105 -5 111 -14z m461 -30 c1 -36 37 -171 51 -188 6 -8 9 -20
6 -27 -6 -15 -71 -37 -85 -28 -10 6 -66 164 -77 218 -6 31 -5 32 42 46 56 17
63 15 63 -21z m1751 -69 c21 -20 39 -40 39 -43 0 -3 -17 -23 -36 -45 -20 -22
-45 -51 -55 -64 -18 -22 -22 -23 -44 -11 -14 7 -23 16 -20 18 3 3 -3 15 -14
26 -19 21 -19 22 32 89 28 37 53 67 55 67 2 0 21 -17 43 -37z m489 -20 c0 -3
-26 -34 -57 -68 -56 -60 -190 -220 -217 -260 -12 -16 -19 -18 -42 -10 -16 6
-35 22 -43 37 -14 25 -14 29 7 51 14 15 20 30 16 40 -7 20 -3 21 29 6 33 -15
56 -1 82 48 17 31 25 38 48 35 31 -3 38 21 10 36 -35 20 -3 46 92 75 56 18 75
20 75 10z m-452 -146 c18 -19 42 -87 31 -87 -2 0 -22 7 -44 16 -22 8 -48 17
-57 21 -25 8 -22 20 10 48 34 30 34 30 60 2z m97 -37 c3 -5 -1 -10 -9 -10 -8
0 -18 5 -21 10 -3 6 1 10 9 10 8 0 18 -4 21 -10z"/>
<path d="M2837 4246 c-12 -9 -14 -16 -8 -21 17 -10 51 4 51 21 0 18 -19 18
-43 0z"/>
<path d="M2800 4204 c0 -8 5 -12 10 -9 6 3 10 10 10 16 0 5 -4 9 -10 9 -5 0
-10 -7 -10 -16z"/>
<path d="M1815 3990 c3 -5 8 -10 11 -10 2 0 4 5 4 10 0 6 -5 10 -11 10 -5 0
-7 -4 -4 -10z"/>
<path d="M1780 3940 c0 -24 15 -27 24 -4 9 22 8 24 -9 24 -8 0 -15 -9 -15 -20z"/>
<path d="M1720 3924 c0 -14 5 -24 11 -22 6 2 10 7 10 11 -1 4 -1 14 -1 22 0 8
-4 15 -10 15 -5 0 -10 -12 -10 -26z"/>
<path d="M1987 3937 c-5 -14 18 -39 27 -30 11 11 6 31 -8 36 -8 3 -16 0 -19
-6z"/>
<path d="M1767 3822 c-11 -12 -13 -22 -7 -32 7 -10 10 -11 10 -2 0 7 15 21 33
32 32 20 32 20 6 20 -14 0 -33 -8 -42 -18z"/>
<path d="M1791 3774 c0 -11 3 -14 6 -6 3 7 2 16 -1 19 -3 4 -6 -2 -5 -13z"/>
<path d="M5293 3666 c-15 -13 -25 -28 -20 -32 4 -4 17 2 30 14 29 28 54 28 83
1 13 -12 24 -16 28 -11 7 12 -53 52 -77 52 -9 0 -29 -11 -44 -24z"/>
<path d="M4897 3593 c-26 -7 -69 -75 -56 -88 8 -7 13 -6 16 3 12 33 56 72 81
72 21 0 24 2 12 10 -16 10 -24 11 -53 3z"/>
<path d="M5342 3568 c-17 -17 -15 -67 3 -74 8 -4 22 -1 30 6 20 17 19 66 -1
74 -20 8 -18 8 -32 -6z"/>
<path d="M4939 3476 c-15 -31 8 -81 36 -81 15 0 21 8 23 32 6 63 -37 98 -59
49z"/>
<path d="M5282 3464 c62 -33 40 -103 -40 -124 -38 -10 -43 -14 -27 -20 25 -9
73 6 103 33 46 42 20 128 -39 127 l-24 -1 27 -15z"/>
<path d="M4407 3372 c-30 -33 -16 -142 19 -142 8 0 14 3 12 8 -2 4 -10 19 -17
34 -17 33 -7 75 20 83 11 4 18 12 16 18 -6 20 -32 19 -50 -1z"/>
<path d="M5378 3306 c-29 -45 -102 -93 -158 -105 -71 -15 -218 -17 -232 -3 -7
7 -16 12 -20 12 -19 0 -68 -45 -68 -62 0 -24 15 -23 39 3 16 18 29 21 73 19
29 -2 80 -2 114 -1 69 2 114 -11 114 -34 0 -20 42 -20 80 0 30 16 39 42 19 62
-7 7 -6 15 5 26 24 24 76 117 66 117 -5 0 -20 -15 -32 -34z"/>
<path d="M4445 3311 c-6 -12 44 -61 62 -61 23 0 14 28 -16 49 -33 24 -37 25
-46 12z"/>
<path d="M1917 3411 c-34 -35 -34 -58 2 -108 43 -60 151 -102 186 -73 43 36
-10 125 -99 166 -27 12 -52 27 -55 32 -3 6 -18 -2 -34 -17z"/>
<path d="M1710 3340 c0 -5 5 -10 11 -10 5 0 7 5 4 10 -3 6 -8 10 -11 10 -2 0
-4 -4 -4 -10z"/>
<path d="M6570 1410 c-13 -8 -13 -10 2 -10 9 0 20 5 23 10 8 13 -5 13 -25 0z"/>
<path d="M2425 3120 c-3 -5 1 -10 9 -10 9 0 16 5 16 10 0 6 -4 10 -9 10 -6 0
-13 -4 -16 -10z"/>
<path d="M3450 2120 c0 -5 5 -10 11 -10 5 0 7 5 4 10 -3 6 -8 10 -11 10 -2 0
-4 -4 -4 -10z"/>
<path d="M2375 1830 c-3 -5 1 -10 9 -10 9 0 16 5 16 10 0 6 -4 10 -9 10 -6 0
-13 -4 -16 -10z"/>
<path d="M2400 1800 c0 -5 9 -10 20 -10 11 0 20 5 20 10 0 6 -9 10 -20 10 -11
0 -20 -4 -20 -10z"/>
<path d="M2798 1273 c6 -2 18 -2 25 0 6 3 1 5 -13 5 -14 0 -19 -2 -12 -5z"/>
<path d="M2720 1259 c0 -5 5 -7 10 -4 6 3 10 8 10 11 0 2 -4 4 -10 4 -5 0 -10
-5 -10 -11z"/>
<path d="M3515 1470 c3 -5 10 -10 16 -10 5 0 9 5 9 10 0 6 -7 10 -16 10 -8 0
-12 -4 -9 -10z"/>
<path d="M5870 1160 c0 -5 5 -10 10 -10 6 0 10 5 10 10 0 6 -4 10 -10 10 -5 0
-10 -4 -10 -10z"/>
<path d="M6194 1005 c-4 -9 -3 -19 0 -23 9 -8 42 12 39 24 -4 16 -33 16 -39
-1z"/>
<path d="M3034 5897 c-3 -8 -4 -49 -2 -93 l3 -79 60 -3 c76 -4 105 11 105 53
0 40 -17 55 -70 62 -53 7 -47 27 11 33 30 3 44 10 44 20 0 21 -143 28 -151 7z
m106 -117 c0 -15 -7 -20 -25 -20 -24 0 -34 18 -18 33 15 15 43 7 43 -13z"/>
<path d="M3234 5897 c-3 -8 -4 -49 -2 -93 l3 -79 74 -3 c51 -2 77 1 82 10 13
20 0 28 -46 28 -45 0 -68 16 -44 31 8 5 26 9 42 9 17 0 27 5 27 14 0 15 -29
29 -50 24 -7 -2 -15 2 -17 9 -5 13 40 29 54 20 15 -9 36 10 30 27 -8 21 -145
24 -153 3z"/>
<path d="M3432 5894 c-33 -23 -29 -48 6 -40 15 4 36 8 47 9 28 3 26 -27 -2
-31 -28 -4 -31 -32 -4 -32 21 0 45 -23 34 -33 -10 -11 -51 -8 -58 3 -8 13 -42
13 -50 -1 -4 -5 1 -19 11 -30 25 -27 116 -27 144 1 22 22 26 45 10 55 -6 4 -7
23 -4 44 5 33 3 41 -17 55 -30 20 -88 21 -117 0z"/>
<path d="M3640 5897 c-55 -28 -67 -108 -22 -149 86 -80 208 1 160 107 -22 48
-87 68 -138 42z m74 -43 c29 -28 16 -94 -18 -94 -45 0 -60 45 -30 88 18 26 27
27 48 6z"/>
<path d="M3822 5901 c-10 -6 -17 -77 -14 -144 2 -36 4 -38 30 -35 26 3 27 5
30 71 3 63 4 67 26 67 29 0 36 -16 36 -86 l0 -54 53 0 c41 0 55 4 65 20 7 11
23 20 37 20 14 0 30 -9 37 -20 8 -12 24 -20 41 -20 33 0 32 2 -13 110 -46 107
-83 105 -120 -6 -12 -35 -25 -66 -30 -69 -11 -7 -20 48 -13 89 9 55 -7 67 -87
65 -37 -1 -72 -4 -78 -8z"/>
<path d="M4238 5895 c-35 -19 -48 -44 -48 -90 0 -40 33 -79 73 -87 52 -10 116
25 103 57 -7 19 -42 19 -50 0 -7 -20 -52 -19 -60 1 -11 28 -6 62 10 78 20 21
29 20 53 -5 21 -23 51 -20 51 4 0 41 -85 68 -132 42z"/>
<path d="M4402 5901 c-9 -5 -12 -31 -10 -92 3 -82 4 -84 28 -84 21 0 26 5 28
33 3 29 6 33 30 30 21 -2 28 -10 32 -33 4 -24 11 -31 33 -33 24 -3 27 0 27 27
0 41 16 47 34 13 31 -60 116 -65 166 -10 l27 29 16 -25 c24 -37 77 -51 121
-32 39 16 55 41 38 58 -8 8 -18 6 -36 -6 -32 -20 -62 -21 -70 0 -10 26 -7 59
8 80 14 19 15 19 45 -4 35 -26 59 -28 67 -7 4 8 15 15 25 15 17 0 19 -8 19
-69 0 -54 3 -70 16 -75 29 -11 43 13 46 77 3 55 5 62 25 65 27 4 36 -24 31
-89 -3 -41 -1 -44 23 -47 21 -2 31 4 49 32 12 20 25 36 30 36 4 0 12 -17 17
-37 6 -28 14 -38 28 -38 17 0 21 9 25 65 7 96 2 120 -25 120 -16 0 -30 -11
-45 -35 -23 -38 -44 -42 -46 -9 -1 10 -2 25 -3 32 -1 10 -31 13 -143 10 -79
-1 -148 1 -155 5 -18 11 -79 -18 -93 -43 l-12 -22 -28 31 c-25 27 -36 31 -79
31 -59 0 -88 -21 -98 -71 -7 -38 -23 -19 -23 27 0 61 -56 70 -62 11 -2 -27 -7
-32 -28 -32 -20 0 -26 6 -28 30 -5 39 -24 53 -50 36z m314 -57 c20 -29 11 -70
-19 -88 -38 -23 -65 64 -31 98 21 22 31 20 50 -10z"/>
<path d="M3037 5604 c-3 -4 1 -24 10 -45 14 -37 14 -42 -7 -85 -17 -37 -19
-49 -9 -55 19 -11 45 6 59 41 15 37 34 34 38 -6 6 -51 52 -55 52 -4 0 43 26
45 46 5 14 -31 21 -35 54 -35 21 0 45 -3 54 -6 14 -5 32 10 70 61 13 16 17 17
25 6 5 -7 6 -21 4 -31 -5 -20 34 -48 47 -33 9 8 14 70 11 139 -2 60 -24 64
-70 14 -40 -43 -51 -43 -51 1 0 30 -16 41 -42 27 -15 -7 -18 -22 -18 -83 0
-41 -4 -75 -9 -75 -5 0 -18 18 -30 40 -20 38 -20 41 -4 76 15 30 15 36 3 44
-17 11 -50 -5 -50 -24 0 -8 -7 -19 -15 -26 -13 -11 -16 -8 -21 19 -8 36 -16
44 -38 35 -10 -4 -16 -18 -16 -35 0 -35 -17 -38 -30 -5 -11 31 -49 54 -63 40z"/>
<path d="M3571 5600 c-13 -3 -29 -13 -35 -23 -17 -27 11 -40 41 -20 22 15 26
15 40 0 18 -17 18 -17 -35 -33 -20 -6 -9 -28 18 -34 13 -3 25 -11 28 -18 6
-20 -26 -25 -53 -8 -22 15 -55 13 -55 -4 0 -13 35 -38 62 -45 26 -7 97 10 99
23 6 29 5 133 -1 142 -10 15 -77 28 -109 20z"/>
<path d="M4178 5603 c-44 -4 -48 -6 -48 -31 0 -51 -20 -103 -43 -111 -31 -11
-109 -2 -104 13 2 6 19 13 38 16 45 7 46 34 2 38 -50 5 -42 30 9 34 32 2 44 8
46 21 3 16 -4 18 -75 15 l-78 -3 -3 -87 c-3 -100 -1 -102 91 -94 42 3 52 0 74
-23 l25 -26 15 23 c12 17 25 22 60 22 30 0 45 -5 49 -15 8 -20 52 -19 56 1 3
14 19 17 116 17 118 -1 128 3 152 48 15 28 30 23 37 -12 7 -35 26 -47 48 -29
10 9 15 32 15 77 0 61 1 64 23 61 20 -3 22 -10 27 -73 5 -67 6 -70 30 -70 24
0 25 3 30 70 5 67 6 70 30 70 24 0 25 -3 30 -70 l5 -70 75 -3 c137 -6 151 3
169 103 4 25 12 40 21 40 11 0 16 -16 18 -65 3 -73 10 -85 41 -75 20 6 22 12
19 93 l-3 87 -70 0 -70 0 -5 -56 c-7 -76 -21 -91 -84 -87 -38 2 -52 7 -54 20
-2 13 5 17 35 20 52 4 53 32 1 36 -57 5 -50 30 10 34 34 2 47 7 47 18 0 13
-34 15 -232 18 -228 2 -232 2 -258 -20 l-26 -23 20 -39 c25 -49 12 -79 -31
-71 -16 3 -41 8 -58 11 -40 8 -39 32 3 36 41 4 43 31 3 38 -50 9 -44 30 8 30
40 0 46 3 46 20 0 19 -5 21 -77 18 l-78 -3 0 -70 c0 -56 -3 -70 -15 -70 -12 0
-16 16 -18 73 -2 39 -7 72 -12 72 -4 0 -14 1 -22 3 -7 2 -34 2 -60 0z m34 -93
c-4 -52 -12 -63 -36 -54 -13 5 -16 14 -11 38 12 58 17 67 33 64 14 -3 16 -13
14 -48z m376 33 c-2 -12 -11 -17 -23 -15 -25 5 -29 8 -20 21 11 19 47 13 43
-6z"/>
<path d="M3719 5548 c-4 -120 6 -152 39 -132 17 11 18 15 21 55 1 16 7 20 29
17 22 -2 28 -8 30 -35 3 -33 28 -51 46 -33 13 13 17 76 10 138 -5 37 -8 42
-30 42 -19 0 -24 -5 -24 -24 0 -52 -56 -60 -62 -9 -2 22 -9 29 -30 31 -27 3
-28 2 -29 -50z"/>
<path d="M5212 5508 l3 -93 58 -3 c72 -4 107 15 107 57 0 36 -18 51 -70 58
-30 4 -40 10 -40 23 0 34 -12 50 -36 50 -25 0 -25 0 -22 -92z m106 -35 c5 -16
-22 -27 -44 -19 -13 5 -14 9 -4 22 15 17 41 15 48 -3z"/>
<path d="M5407 5594 c-11 -11 -8 -172 3 -179 22 -14 50 6 50 35 0 20 6 31 21
35 26 9 37 -2 41 -40 2 -24 8 -30 28 -30 23 0 25 4 30 55 3 30 3 72 1 93 -3
35 -6 38 -30 35 -20 -2 -27 -10 -31 -33 -4 -24 -10 -30 -30 -30 -20 0 -26 6
-30 30 -5 29 -36 46 -53 29z"/>
<path d="M5628 5573 c-14 -16 -28 -36 -31 -46 -10 -26 17 -83 47 -103 39 -25
104 -14 134 23 l22 28 18 -21 c9 -12 27 -27 39 -33 52 -26 133 -2 133 40 0 24
-36 26 -62 2 -15 -13 -23 -15 -36 -7 -21 13 -28 70 -11 90 15 18 45 18 53 -1
7 -20 53 -19 64 2 6 9 16 14 25 10 12 -4 17 -23 19 -74 3 -65 4 -68 28 -68 24
0 25 3 28 68 2 50 7 70 18 74 25 9 36 -12 39 -74 4 -77 3 -73 23 -73 9 0 34
19 54 42 37 42 37 42 38 16 0 -42 10 -58 36 -58 13 0 25 3 25 8 5 26 7 157 2
168 -6 15 -53 20 -53 5 0 -5 -12 -24 -26 -41 -30 -35 -44 -28 -44 23 l0 27
-101 0 c-55 0 -110 -5 -121 -11 -14 -8 -23 -8 -31 0 -14 14 -72 14 -100 0 -12
-6 -29 -21 -39 -32 l-16 -21 -30 32 c-25 27 -37 32 -74 32 -35 0 -49 -5 -70
-27z m97 -68 c0 -40 -4 -50 -18 -53 -40 -8 -61 44 -36 89 6 13 18 19 32 17 19
-3 22 -9 22 -53z"/>
<path d="M4955 4703 c6 -5 55 -24 110 -42 113 -37 283 -115 352 -161 25 -17
50 -29 56 -27 5 1 -3 11 -19 22 -16 10 -38 27 -49 37 -62 58 -238 138 -350
159 -27 5 -63 12 -80 15 -19 4 -26 3 -20 -3z"/>
<path d="M2396 1246 c3 -8 16 -22 29 -30 48 -32 43 -10 -5 24 -21 15 -28 17
-24 6z"/>
<path d="M2480 1170 c0 -5 4 -10 8 -10 5 0 17 -8 28 -18 10 -10 28 -21 39 -25
12 -5 3 7 -19 28 -40 36 -56 43 -56 25z"/>
<path d="M3702 1040 c0 -14 2 -19 5 -12 2 6 2 18 0 25 -3 6 -5 1 -5 -13z"/>
<path d="M3688 1003 c-16 -4 -27 -43 -12 -43 16 0 44 23 44 35 0 15 -2 16 -32
8z"/>
<path d="M3668 709 c-3 -8 -91 -11 -306 -11 -171 0 -304 -4 -308 -9 -3 -5 51
-9 128 -10 356 -3 532 -9 542 -19 5 -5 17 -10 25 -10 8 0 -3 15 -25 35 -43 37
-50 41 -56 24z"/>
</g>
</svg>
