<svg width="200" height="270" xmlns="http://www.w3.org/2000/svg">

 <g>
  <title>background</title>
  <rect fill="none" id="canvas_background" height="272" width="202" y="-1" x="-1"/>
 </g>
 <g>
  <title>Layer 1</title>
  <g id="XMLID_1481_">
   <g id="XMLID_1482_">
    <g id="XMLID_1483_">
     <path fill="#F3D8B6" d="m183.039,240.042c-18.667,-6.681 -51.458,-11.736 -51.458,-81.376l-29.23,0l-5.002,0l-29.23,0c0,69.64 -32.791,74.695 -51.458,81.376c0,47.368 68.832,48.824 80.688,53.239l0,1.537c0,0 0.922,-0.188 2.501,-0.68c1.579,0.492 2.501,0.68 2.501,0.68l0,-1.537c11.856,-4.415 80.688,-5.872 80.688,-53.239z" id="XMLID_1484_"/>
    </g>
    <path fill="#EEC8A2" d="m131.582,158.666l-29.23,0l-2.251,0l0,135.547c1.421,0.433 2.251,0.604 2.251,0.604l0,-1.537c11.855,-4.414 80.688,-5.871 80.688,-53.239c-18.667,-6.68 -51.458,-11.735 -51.458,-81.375z" id="XMLID_1485_"/>
   </g>
   <g id="XMLID_1486_">
    <path fill="#F3DBC4" d="m100.103,180.828c-27.454,0 -48.409,-23.119 -57.799,-40.456s-15.888,-79.445 4.34,-106.897c19.808,-26.883 53.459,-13.838 53.459,-13.838s33.649,-13.045 53.458,13.838c20.226,27.452 13.726,89.56 4.335,106.897c-9.392,17.337 -30.345,40.456 -57.793,40.456z" id="XMLID_1487_"/>
    <path fill="#EDCEAE" d="m153.561,33.476c-19.81,-26.883 -53.458,-13.838 -53.458,-13.838l-0.002,0l0,161.191l0.002,0c27.449,0 48.401,-23.119 57.794,-40.456c9.39,-17.337 15.89,-79.445 -4.336,-106.897z" id="XMLID_1488_"/>
   </g>
   <g id="XMLID_1489_">
    <path fill="#E1A98C" d="m157.556,29.321c-2.159,0.08 -12.282,-31.303 -39.282,-24.303c-18.537,4.806 -20.877,7.419 -28.12,9.463c-29.41,-9.014 -57.539,14.472 -56.495,36.488c1.759,37.07 -4.778,36.505 -0.295,49.454s8.466,23.407 8.466,23.407s0.996,3.565 2.988,-16.854s-4.705,-31.379 11.137,-31.379c52.452,0 -19.698,20.372 13.952,20.372c33.391,0 59.203,-27.381 74.92,-29.372c15.716,-1.992 9.145,19.96 11.137,40.379s2.988,16.854 2.988,16.854s8.92,-9.712 8.466,-23.407c-0.51,-15.454 6.37,-71.704 -9.862,-71.102z" id="XMLID_1492_"/>
    <path fill="#D2987B" d="m157.556,29.322c-2.159,0.08 -12.282,-31.303 -39.282,-24.303c-9.171,2.377 -14.375,4.218 -18.173,5.719l0,78.302c18.973,-8.253 34.142,-21.103 44.726,-22.443c15.717,-1.992 9.145,19.96 11.137,40.379s2.988,16.854 2.988,16.854s8.92,-9.712 8.466,-23.407c-0.51,-15.454 6.37,-71.704 -9.862,-71.101z" id="XMLID_1493_"/>
   </g>
   <g id="XMLID_1494_">
    <path fill="#A7B8D4" d="m142.267,105.856l-27.689,0c-1.185,0 -2.356,0.243 -3.431,0.713l-10.874,3.873l-10.874,-3.873c-1.075,-0.47 -2.246,-0.713 -3.431,-0.713l-27.688,0c-5.509,0 -7.411,9.474 -7.411,9.474c0,12.532 9.191,22.692 23.756,22.692c8.882,0 17.409,-9.44 22.649,-17.081l6,0c5.24,7.641 13.768,17.081 22.649,17.081c14.565,0 23.756,-10.16 23.756,-22.692c-0.001,0 -1.903,-9.474 -7.412,-9.474z" id="XMLID_1495_"/>
    <path fill="#8AA4C2" d="m142.267,105.856l-27.689,0c-1.185,0 -2.356,0.243 -3.431,0.713l-11.041,3.813l0,10.559l3.167,0c5.24,7.641 13.768,17.081 22.649,17.081c14.565,0 23.756,-10.16 23.756,-22.692c0,0 -1.902,-9.474 -7.411,-9.474z" id="XMLID_1496_"/>
   </g>
   <g id="XMLID_1497_">
    <path fill="#682234" d="m180.383,223.513c-2.201,-1.327 -5.416,-2.538 -8.955,-3.63c-5.291,-1.905 -11.248,-3.442 -15.795,-4.565c-1.89,-0.473 -9.146,-0.102 -15.118,-13.184l-79.463,0c-5.328,13.132 -11.814,12.767 -13.484,13.184c-7.154,1.766 -20.802,4.554 -26.844,8.195c-23.228,13.951 -40.605,40.482 -40.605,70.914l0,40.681l239.964,0l0.906,0l0,-40.681c-0.001,-30.432 -17.378,-56.963 -40.606,-70.914z" id="XMLID_1498_"/>
    <path fill="#581A2B" d="m180.383,223.513c-2.201,-1.327 -5.416,-2.538 -8.955,-3.63c-5.291,-1.905 -11.248,-3.442 -15.795,-4.565c-1.89,-0.473 -9.146,-0.102 -15.118,-13.184l-40.867,0l0,132.974l120.435,0l0.906,0l0,-40.681c-0.001,-30.432 -17.378,-56.963 -40.606,-70.914z" id="XMLID_1499_"/>
   </g>
   <g id="XMLID_1500_">
    <g id="XMLID_1504_">
     <g id="XMLID_1502_">
      <path fill="#E1A98C" d="m166.779,106.653c-0.725,14.745 -22.425,29.324 -29.599,39.061c-16.801,22.803 -37.079,3.255 -37.079,3.255s-19.826,19.548 -36.629,-3.255c-7.173,-9.735 -28.871,-24.311 -29.596,-39.054c-1.19,20.863 11.665,42.273 16.381,50.979c7.973,14.719 26.764,34.348 50.072,34.348c23.304,0 42.094,-19.629 50.068,-34.348c4.716,-8.707 17.572,-30.121 16.382,-50.986z" id="XMLID_1503_"/>
     </g>
    </g>
    <path fill="#D2987B" d="m166.779,106.653c-0.725,14.745 -22.424,29.324 -29.599,39.061c-16.801,22.803 -37.08,3.255 -37.08,3.255l0,43.012c0.076,0 0.152,0.006 0.228,0.006c23.304,0 42.094,-19.628 50.068,-34.348c4.717,-8.707 17.573,-30.121 16.383,-50.986z" id="XMLID_1506_"/>
   </g>
   <g id="XMLID_1507_">
    <ellipse fill="#EDCEAE" ry="10.048" rx="17.187" cy="49.748168" cx="200.503507" transform="matrix(0.3543,-0.9351,0.9351,0.3543,44.7116,282.9862) " id="XMLID_33_"/>
    <ellipse fill="#F3DBC4" ry="10.048" rx="17.187" cy="171.326401" cx="83.632752" transform="matrix(0.3543,0.9351,-0.9351,0.3543,168.501,-25.7861) " id="XMLID_32_"/>
   </g>
  </g>
  <g id="svg_1"/>
  <g id="svg_2"/>
  <g id="svg_3"/>
  <g id="svg_4"/>
  <g id="svg_5"/>
  <g id="svg_6"/>
  <g id="svg_7"/>
  <g id="svg_8"/>
  <g id="svg_9"/>
  <g id="svg_10"/>
  <g id="svg_11"/>
  <g id="svg_12"/>
  <g id="svg_13"/>
  <g id="svg_14"/>
  <g id="svg_15"/>
  <text stroke="#000" transform="matrix(11.488710403442383,0,0,1,-1844.4156216653937,0) " xml:space="preserve" text-anchor="start" font-family="Helvetica, Arial, sans-serif" font-size="24" id="svg_16" y="276.55" x="162.5" stroke-width="0" fill="#000000"/>
  <text font-weight="bold" font-style="italic" stroke="#000" transform="matrix(0.9019294225686445,0,0,0.9003082847348353,-49.67237701979995,41.529345285525) " xml:space="preserve" text-anchor="start" font-family="'Times New Roman', Times, serif" font-size="24" id="svg_17" y="278.55" x="61.5" fill-opacity="null" stroke-opacity="null" stroke-width="0" fill="#000000">Василий Петрович</text>
 </g>
</svg>