<svg width="200" height="270" xmlns="http://www.w3.org/2000/svg">

 <g>
  <title>background</title>
  <rect fill="#f29e7d" id="canvas_background" height="272" width="202" y="-1" x="-1"/>
 </g>
 <g>
  <title>Layer 1</title>
  <g stroke="null" id="XMLID_441_">
   <g stroke="null" id="XMLID_484_">
    <path stroke="null" id="XMLID_218_" fill="#EDBB98" d="m108.343584,223.976306l-13.68701,0c-11.639347,0 -21.069374,-9.430027 -21.069374,-21.069374l0,-30.499401c0,-11.639347 9.430027,-21.069374 21.069374,-21.069374l13.68701,0c11.639347,0 21.069374,9.430027 21.069374,21.069374l0,30.499401c0,11.639347 -9.430027,21.069374 -21.069374,21.069374z"/>
   </g>
   <g stroke="null" id="XMLID_482_">
    <path stroke="null" id="XMLID_217_" fill="#2B00FF" d="m129.412958,202.421959l0,0.484973c0,11.639347 -9.430027,21.069374 -21.069374,21.069374l-13.68701,0c-11.639347,0 -21.069374,-9.430027 -21.069374,-21.069374l0,-0.484973c-43.863096,9.483913 -78.026736,38.690053 -87.187334,74.362497c-0.107772,0.484973 58.088965,0 115.100213,0c57.011248,0 115.261871,0.484973 115.100213,0c-9.160598,-35.672444 -43.324238,-64.878585 -87.187334,-74.362497z"/>
   </g>
   <g stroke="null" id="XMLID_480_">
    <ellipse stroke="null" transform="matrix(0.5265726991878045,0.11445358299988712,-0.11445358299988712,0.5265726991878045,63.817664427563244,178.0932041458542) " ry="39.6" rx="28.7" id="XMLID_216_" fill="#F4C5A2" cy="-153.498022" cx="170.623076"/>
   </g>
   <g stroke="null" id="XMLID_478_">
    <ellipse stroke="null" transform="matrix(-0.5265726991878045,0.11445358299988712,-0.11445358299988712,-0.5265726991878045,199.55374030584983,435.9646706660783) " ry="39.6" rx="28.7" id="XMLID_215_" fill="#F4C5A2" cy="641.331576" cx="174.159561"/>
   </g>
   <g stroke="null" id="XMLID_476_">
    <ellipse stroke="null" ry="77.433992" rx="66.387389" id="XMLID_214_" fill="#F4C5A2" cy="115.450169" cx="103.008883"/>
   </g>
   <g stroke="null" id="XMLID_474_">
    <path stroke="null" id="XMLID_213_" fill="#333333" d="m115.56429,89.315523c1.508804,-2.694293 3.933668,-4.741956 6.627962,-6.250761c2.694293,-1.508804 5.819674,-2.370978 9.052826,-2.424864c1.616576,-0.107772 3.233152,0.161658 4.795842,0.431087c1.56269,0.484973 3.071494,0.91606 4.418641,1.778234c1.401033,0.700516 2.640408,1.724348 3.772011,2.802065c0.592745,0.484973 1.023831,1.131603 1.508804,1.778234c0.431087,0.64663 0.862174,1.239375 1.239375,1.939891c-1.56269,-0.323315 -2.855951,-0.91606 -4.203098,-1.239375c-1.347147,-0.323315 -2.586522,-0.754402 -3.879782,-0.91606c-1.239375,-0.323315 -2.532636,-0.377201 -3.718125,-0.592745c-1.239375,0 -2.47875,-0.161658 -3.718125,-0.053886c-2.47875,0.053886 -4.9575,0.377201 -7.597907,0.862174c-2.640408,0.484973 -5.334701,1.131603 -8.298424,1.886005z"/>
   </g>
   <g stroke="null" id="XMLID_469_">
    <g stroke="null" id="XMLID_472_">
     <circle stroke="null" r="7.975101" id="XMLID_212_" fill="#333333" cy="107.47506" cx="131.245078"/>
    </g>
    <g stroke="null" id="XMLID_470_">
     <circle stroke="null" r="1.993761" id="XMLID_211_" fill="#F2F2F2" cy="101.655386" cx="132.592224"/>
    </g>
   </g>
   <g stroke="null" id="XMLID_467_">
    <path stroke="null" id="XMLID_210_" fill="#333333" d="m59.091901,89.315523c1.508804,-2.694293 3.933668,-4.741956 6.627962,-6.250761c2.694293,-1.508804 5.819674,-2.370978 9.052826,-2.424864c1.616576,-0.107772 3.233152,0.161658 4.795842,0.431087c1.56269,0.484973 3.071494,0.91606 4.418641,1.778234c1.401033,0.700516 2.640408,1.724348 3.772011,2.802065c0.592745,0.484973 1.023831,1.131603 1.508804,1.778234c0.431087,0.64663 0.862174,1.239375 1.239375,1.939891c-1.56269,-0.323315 -2.855951,-0.91606 -4.203098,-1.239375c-1.347147,-0.323315 -2.586522,-0.754402 -3.879782,-0.91606c-1.239375,-0.323315 -2.532636,-0.377201 -3.718125,-0.592745c-1.239375,0 -2.47875,-0.161658 -3.718125,-0.053886c-2.47875,0.053886 -4.9575,0.377201 -7.597907,0.862174c-2.694293,0.484973 -5.334701,1.131603 -8.298424,1.886005z"/>
   </g>
   <g stroke="null" id="XMLID_462_">
    <g stroke="null" id="XMLID_465_">
     <circle stroke="null" r="7.975108" id="XMLID_209_" fill="#333333" cy="107.47506" cx="74.772688"/>
    </g>
    <g stroke="null" id="XMLID_463_">
     <circle stroke="null" r="1.993761" id="XMLID_208_" fill="#F2F2F2" cy="101.655386" cx="76.065949"/>
    </g>
   </g>
   <g stroke="null" id="XMLID_460_">
    <path stroke="null" id="XMLID_207_" fill="#F4A56E" d="m91.04622,132.370331c2.155435,0.592745 4.04144,1.077717 5.87356,1.401033c1.83212,0.377201 3.610353,0.538859 5.388587,0.592745c1.724348,0 3.502581,-0.107772 5.334701,-0.538859c0.91606,-0.107772 1.83212,-0.431087 2.802065,-0.64663c0.969946,-0.215543 1.939891,-0.64663 3.071494,-0.808288c-0.538859,0.969946 -1.185489,1.886005 -1.939891,2.694293c-0.808288,0.754402 -1.670462,1.508804 -2.694293,2.047663c-1.939891,1.185489 -4.310869,1.724348 -6.627962,1.724348c-2.317092,0 -4.580299,-0.64663 -6.574076,-1.724348c-1.939891,-1.185489 -3.610353,-2.694293 -4.634185,-4.741956z"/>
   </g>
   <g stroke="null" id="XMLID_458_">
    <path stroke="null" id="XMLID_206_" fill="#3F2820" d="m103.008883,53.158106c0,0 14.60307,28.990597 48.335623,31.523233c0,0 9.64557,20.422744 4.472527,30.714945l11.693233,-18.321195c0,0 10.292201,-2.748179 16.111874,4.526413c0,0 13.902554,-62.399835 -29.744999,-86.97179c0,0 7.705679,-5.119157 8.783396,-5.119157c1.077717,0 -11.693233,0.754402 -15.734673,2.909837l0,-11.316032l-7.705679,9.537799c0,0 -46.126303,-25.972988 -99.311654,9.591684c0,0 -36.911819,30.068314 -19.021711,84.870242c0,0 5.819674,-12.501521 17.189592,-5.60413c0,0 6.358532,12.555407 11.962663,18.698396c0,0 -7.975108,-30.176086 7.059049,-48.497281c0,0 1.670462,12.986494 9.64557,15.034157c0,0 -4.634185,-10.399972 2.047663,-25.056928c0,0 5.334701,28.667282 29.313912,29.098369c0.107772,-0.053886 -16.596847,-24.571956 4.903614,-35.618559z"/>
   </g>
   <g stroke="null" id="XMLID_454_">
    <path stroke="null" id="XMLID_455_" fill="#1A1A1A" d="m130.598447,128.275005c-12.070434,0 -21.877662,-9.807228 -21.877662,-21.877662s9.807228,-21.877662 21.877662,-21.877662c12.070434,0 21.877662,9.807228 21.877662,21.877662s-9.861114,21.877662 -21.877662,21.877662zm0,-40.68383c-10.346087,0 -18.806168,8.460081 -18.806168,18.806168s8.460081,18.806168 18.806168,18.806168c10.346087,0 18.806168,-8.460081 18.806168,-18.806168s-8.460081,-18.806168 -18.806168,-18.806168z"/>
   </g>
   <g stroke="null" id="XMLID_450_">
    <path stroke="null" id="XMLID_451_" fill="#1A1A1A" d="m74.772688,128.275005c-12.070434,0 -21.877662,-9.807228 -21.877662,-21.877662s9.807228,-21.877662 21.877662,-21.877662c12.070434,0 21.877662,9.807228 21.877662,21.877662s-9.807228,21.877662 -21.877662,21.877662zm0,-40.68383c-10.346087,0 -18.806168,8.460081 -18.806168,18.806168s8.460081,18.806168 18.806168,18.806168s18.806168,-8.460081 18.806168,-18.806168s-8.460081,-18.806168 -18.806168,-18.806168z"/>
   </g>
   <g stroke="null" id="XMLID_448_">
    <path stroke="null" id="XMLID_201_" fill="#1A1A1A" d="m99.075215,103.379734c-5.011386,0 -5.119157,-0.323315 -5.442473,-1.185489l0.538859,-1.724348l1.886005,2.424864l-0.91606,-1.185489l0.053886,-0.323315c-0.161658,-0.700516 0.64663,-1.077717 0.323315,-1.131603c1.023831,0.161658 9.537799,0.053886 15.303586,-0.107772l0.053886,3.071494c-5.60413,0.107772 -9.322255,0.161658 -11.801005,0.161658z"/>
   </g>
   <g stroke="null" id="XMLID_446_">
    <rect stroke="null" y="-146.283736" x="61.285974" width="35.4" transform="matrix(0.49725878715770155,0.20762224825732814,-0.20762224825732814,0.49725878715770155,86.69911265829586,152.9940830298295) " id="XMLID_200_" height="5.7" fill="#1A1A1A"/>
   </g>
   <g stroke="null" id="XMLID_444_">
    <rect stroke="null" y="117.41562" x="-268.055315" width="5.7" transform="matrix(0.21786056312078322,0.4928401460061052,-0.4928401460061052,0.21786056312078322,174.31079780892742,199.12518162530523) " id="XMLID_199_" height="38.6" fill="#1A1A1A"/>
   </g>
   <g stroke="null" id="XMLID_442_">
    <ellipse stroke="null" ry="10.507744" rx="8.675625" id="XMLID_19_" fill="#F4A56E" cy="157.211716" cx="102.254481"/>
   </g>
  </g>
 </g>
</svg>