<svg width="200" height="270" xmlns="http://www.w3.org/2000/svg">

 <g>
  <title>background</title>
  <rect fill="none" id="canvas_background" height="272" width="202" y="-1" x="-1"/>
 </g>
 <g>
  <title>Layer 1</title>
  <g stroke="null" id="XMLID_972_">
   <g stroke="null" id="XMLID_973_">
    <path stroke="null" fill="#682234" d="m169.882302,107.268726c0,-59.759849 -26.825704,-103.619777 -69.433302,-103.619777c-42.371007,0 -69.129563,43.375089 -69.426399,102.625894c-1.553212,-0.410756 -3.166671,-0.634471 -4.825313,-0.634471c-12.035984,0 -21.793296,11.404344 -21.793296,25.472c0,11.558378 6.588758,21.312363 15.613707,24.426773c0.210233,13.855677 9.879059,25.013567 21.783255,25.013567c3.638596,0 7.065705,-1.047428 10.080506,-2.890695c3.13341,9.575747 11.063893,16.378158 20.357437,16.378158c12.035984,0 21.793296,-11.404344 21.793296,-25.472c0,-2.05598 -0.213998,-4.051814 -0.607479,-5.966963c27.66538,1.236669 56.859498,-4.855721 69.456522,-18.278637c16.562579,-17.646367 7.001066,-20.962487 7.001066,-37.053849z" id="XMLID_1002_"/>
    <path stroke="null" fill="#581A2B" d="m196.494008,131.112372c0,-14.067656 -9.757312,-25.472 -21.793296,-25.472c-1.65927,0 -3.272728,0.223715 -4.825313,0.634471c-0.296836,-59.250805 -27.056019,-102.625894 -69.426399,-102.625894c-0.020082,0 -0.039536,0.000733 -0.058991,0.000733l0,159.109231c2.364648,0.000733 4.729296,-0.052078 7.082649,-0.156967c-0.39348,1.915149 -0.607479,3.910983 -0.607479,5.966963c0,14.067656 9.757312,25.472 21.793296,25.472c9.294172,0 17.224655,-6.802411 20.357437,-16.378158c3.015429,1.842534 6.442537,2.890695 10.080506,2.890695c11.904824,0 21.573022,-11.157891 21.783255,-25.013567c9.025576,-3.115143 15.614335,-12.869129 15.614335,-24.427507z" id="XMLID_1004_"/>
   </g>
   <g stroke="null" id="XMLID_1005_">
    <path stroke="null" fill="#F3D8B6" d="m118.227163,136.232151l-16.871339,0l-0.788216,0l-0.237845,0l-0.788216,0l-16.871339,0c0,54.683346 -22.862032,49.736671 -22.862032,49.736671c0,34.744081 32.107254,45.764075 39.732743,49.001712l0,1.127378c0,0 0.33449,-0.080684 0.907453,-0.263324c0.572335,0.18264 0.907453,0.263324 0.907453,0.263324l0,-1.127378c7.625489,-3.237637 39.732743,-14.258364 39.732743,-49.001712c0.000628,0 -22.861404,4.946675 -22.861404,-49.736671z" id="XMLID_1006_"/>
    <path stroke="null" fill="#EEC8A2" d="m118.227163,136.232151l-16.871339,0l-0.788216,0l-0.118609,0l0,99.602437c0.572335,0.18264 0.907453,0.263324 0.907453,0.263324l0,-1.127378c7.625489,-3.237637 39.732743,-14.258364 39.732743,-49.001712c0,0 -22.862032,4.946675 -22.862032,-49.736671z" id="XMLID_1007_"/>
   </g>
   <g stroke="null" id="XMLID_1008_">
    <path stroke="null" fill="#F3D8B6" d="m173.861663,236.902553l0,29.839215l-146.825955,0l0,-29.839215c0,-22.320916 9.022438,-41.781943 23.599415,-52.014166c3.792349,-2.670647 7.963744,-4.716358 12.453312,-6.011706c3.735868,-1.091437 7.690127,-1.666495 11.824496,-1.666495l25.536067,17.605291l25.536067,-17.605291c4.134369,0 8.088628,0.575058 11.824496,1.666495c4.489568,1.295348 8.661591,3.340326 12.453312,6.011706c14.576349,10.232223 23.598788,29.69325 23.598788,52.014166z" id="XMLID_1009_"/>
    <path stroke="null" fill="#EEC8A2" d="m173.861036,236.903287l0,29.838482l-73.412036,0l0,-71.926292l22.592181,-15.572049l2.943259,-2.031775c4.135624,0 8.089256,0.572124 11.823241,1.665028c4.493334,1.298282 8.660336,3.337392 12.457077,6.01464c14.571957,10.232223 23.596278,29.691783 23.596278,52.011965z" id="XMLID_1010_"/>
   </g>
   <g stroke="null" id="XMLID_1011_">
    <path stroke="null" fill="#F3DBC4" d="m101.016942,92.346551l-40.783907,0c0.527151,16.258599 2.729889,30.962193 5.289081,36.483926c5.674403,12.244927 18.337948,28.574674 34.928139,28.574674c16.587054,0 29.248716,-16.329014 34.925001,-28.574674c2.558564,-5.521733 4.76193,-20.225327 5.289708,-36.483926l-39.648022,0z" id="XMLID_1012_"/>
    <path stroke="null" fill="#EDCEAE" d="m101.016942,92.346551l-0.627561,0l0,65.056399c0.020082,0 0.040164,0.001467 0.060246,0.001467c16.587054,0 29.248716,-16.329747 34.925001,-28.574674c2.558564,-5.521733 4.76193,-20.224593 5.289708,-36.483926l-39.647394,0l0,0.000733z" id="XMLID_1013_"/>
   </g>
   <g stroke="null" id="XMLID_1014_">
    <path stroke="null" fill="#AEC7EA" d="m128.992965,200.149436l-1.854441,0c-4.461328,11.667668 -14.448327,19.799168 -26.061963,19.799168c-15.76997,0 -28.554006,-14.985255 -28.554006,-33.470738c0,-3.273578 0.407914,-6.434198 1.155339,-9.424647c-3.690684,0.101955 -7.232008,0.65941 -10.594478,1.643757c-4.493334,1.298282 -8.660336,3.337392 -12.457077,6.01464c-14.571957,10.232223 -23.596278,29.691783 -23.596278,52.011965l0,4.378951l23.411775,0l-0.192034,0.366746l0,25.427991l100.409692,0l0,-25.427991l-21.666529,-41.319843z" id="XMLID_1015_"/>
    <path stroke="null" fill="#96B3D4" d="m173.867311,236.724315c0,-22.320182 -9.024321,-41.779743 -23.596278,-52.011965c-3.796741,-2.677248 -7.963744,-4.716358 -12.457077,-6.01464c-2.974637,-0.870656 -6.091103,-1.404638 -9.32555,-1.588012c0.738639,2.974313 1.14216,6.115862 1.14216,9.368902c0,18.485482 -12.784036,33.470738 -28.554006,33.470738c-0.20835,0 -0.41419,-0.013203 -0.621285,-0.018337l0,46.967003l50.204846,0l0,-25.427991l-0.192034,-0.366746l23.399224,0l0,-4.378951z" id="XMLID_1016_"/>
   </g>
  </g>
  <g id="svg_1"/>
  <g id="svg_2"/>
  <g id="svg_3"/>
  <g id="svg_4"/>
  <g id="svg_5"/>
  <g id="svg_6"/>
  <g id="svg_7"/>
  <g id="svg_8"/>
  <g id="svg_9"/>
  <g id="svg_10"/>
  <g id="svg_11"/>
  <g id="svg_12"/>
  <g id="svg_13"/>
  <g id="svg_14"/>
  <g id="svg_15"/>
 </g>
</svg>