<svg width="200" height="270" xmlns="http://www.w3.org/2000/svg">

 <g>
  <title>background</title>
  <rect fill="#f7a385" id="canvas_background" height="272" width="202" y="-1" x="-1"/>
 </g>
 <g>
  <title>Layer 1</title>
  <g stroke="null" id="XMLID_220_">
   <g stroke="null" id="XMLID_257_">
    <path stroke="null" id="XMLID_260_" fill="#EDBB98" d="m108.331192,224.091585l-12.662373,0c-10.710257,0 -19.415638,-8.705381 -19.415638,-19.415638l0,-28.12102c0,-10.710257 8.705381,-19.415638 19.415638,-19.415638l12.662373,0c10.710257,0 19.415638,8.705381 19.415638,19.415638l0,28.12102c0,10.710257 -8.705381,19.415638 -19.415638,19.415638z"/>
    <path stroke="null" id="XMLID_259_" fill="#9E005D" d="m127.74683,204.253867l0,0.474839c0,10.710257 -8.705381,19.415638 -19.415638,19.415638l-12.662373,0c-10.710257,0 -19.415638,-8.705381 -19.415638,-19.415638l0,-0.474839c-40.466833,8.758141 -71.911726,35.665684 -80.353308,68.535093c-0.10552,0.474839 53.551285,0 106.100133,0c52.548847,0 106.205652,0.474839 106.100133,0c-8.441582,-32.86941 -39.939234,-59.776952 -80.353308,-68.535093z"/>
    <path stroke="null" id="XMLID_258_" fill="#110102" d="m107.328754,234.221483"/>
   </g>
   <path stroke="null" id="XMLID_256_" fill="#3F2820" d="m54.410587,149.014266c0,0 6.120147,34.293926 -11.712695,41.627551c0,0 -49.277734,39.253356 -24.902667,69.273731c0,0 12.187534,-14.931048 26.274424,-21.314994c0,0 26.854782,-14.508969 32.236291,-33.924607l5.592548,-31.444893l-27.487901,-24.216788z"/>
   <ellipse stroke="null" transform="matrix(0.5155696146477928,0.112061999745386,-0.112061999745386,0.5155696146477928,197.28936031112622,147.8095403558276) " ry="38.9" rx="28.1" id="XMLID_255_" fill="#F4C5A2" cy="-35.393759" cx="-65.101443"/>
   <ellipse stroke="null" transform="matrix(-0.5155696146477928,0.112061999745386,-0.112061999745386,-0.5155696146477928,330.1766370882915,411.68014787211126) " ry="38.9" rx="28.1" id="XMLID_254_" fill="#F4C5A2" cy="651.852006" cx="428.268041"/>
   <ellipse stroke="null" ry="74.391441" rx="63.733943" id="XMLID_253_" fill="#F4C5A2" cy="120.998766" cx="102.158285"/>
   <g stroke="null" id="XMLID_242_">
    <g stroke="null" id="XMLID_248_">
     <path stroke="null" id="XMLID_252_" fill="#333333" d="m112.710262,103.113164c1.477277,-2.585234 3.798712,-4.53735 6.383946,-6.014627c2.585234,-1.424517 5.592548,-2.268675 8.705381,-2.374195c1.530037,-0.10552 3.112833,0.15828 4.59011,0.422079c1.477277,0.474839 2.954554,0.844158 4.273551,1.688316c1.371757,0.685879 2.532475,1.688316 3.587672,2.690754c0.580359,0.474839 1.002438,1.107958 1.424517,1.688316c0.422079,0.580359 0.844158,1.213477 1.213477,1.846596c-1.530037,-0.316559 -2.743514,-0.844158 -4.062511,-1.160718c-1.318997,-0.316559 -2.479715,-0.738638 -3.745952,-0.896918c-1.213477,-0.316559 -2.426955,-0.369319 -3.587672,-0.580359c-1.213477,0 -2.374195,-0.15828 -3.534912,-0.05276c-2.374195,0.05276 -4.80115,0.369319 -7.280864,0.844158c-2.532475,0.527599 -5.064949,1.160718 -7.966743,1.899356z"/>
     <g stroke="null" id="XMLID_249_">
      <circle stroke="null" r="7.65018" id="XMLID_251_" fill="#333333" cy="113.295822" cx="128.485469"/>
      <circle stroke="null" r="1.899356" id="XMLID_250_" fill="#F2F2F2" cy="107.703274" cx="129.698946"/>
     </g>
    </g>
    <g stroke="null" id="XMLID_243_">
     <path stroke="null" id="XMLID_247_" fill="#333333" d="m61.691452,103.113164c1.477277,-2.585234 3.798712,-4.53735 6.383946,-6.014627c2.585234,-1.424517 5.592548,-2.268675 8.705381,-2.374195c1.530037,-0.10552 3.112833,0.15828 4.59011,0.422079c1.477277,0.474839 2.954554,0.844158 4.273551,1.688316c1.371757,0.685879 2.532475,1.688316 3.587672,2.690754c0.580359,0.474839 1.002438,1.107958 1.424517,1.688316c0.422079,0.580359 0.844158,1.213477 1.213477,1.846596c-1.530037,-0.316559 -2.743514,-0.844158 -4.062511,-1.160718c-1.318997,-0.316559 -2.479715,-0.738638 -3.745952,-0.896918c-1.213477,-0.316559 -2.426955,-0.369319 -3.587672,-0.580359c-1.213477,0 -2.374195,-0.15828 -3.534912,-0.05276c-2.374195,0.05276 -4.80115,0.369319 -7.280864,0.844158c-2.532475,0.527599 -5.117709,1.160718 -7.966743,1.899356z"/>
     <g stroke="null" id="XMLID_244_">
      <circle stroke="null" r="7.65018" id="XMLID_246_" fill="#333333" cy="113.295822" cx="74.195545"/>
      <circle stroke="null" r="1.89936" id="XMLID_245_" fill="#F2F2F2" cy="107.703274" cx="75.461782"/>
     </g>
    </g>
   </g>
   <path stroke="null" id="XMLID_241_" fill="#F4A56E" d="m90.55111,141.522362c2.057636,0.527599 3.904232,1.002438 5.645308,1.371757c1.793836,0.369319 3.482153,0.527599 5.170469,0.527599c1.688316,0 3.376633,-0.10552 5.117709,-0.527599c0.896918,-0.10552 1.741076,-0.422079 2.690754,-0.633119c0.949678,-0.21104 1.846596,-0.580359 2.954554,-0.791398c-0.527599,0.896918 -1.160718,1.793836 -1.899356,2.585234c-0.791398,0.685879 -1.582797,1.477277 -2.585234,1.952116c-1.846596,1.107958 -4.115271,1.635556 -6.331186,1.635556c-2.215915,0 -4.43183,-0.633119 -6.278427,-1.688316c-1.846596,-1.055198 -3.482153,-2.479715 -4.48459,-4.43183z"/>
   <ellipse stroke="null" ry="8.652621" rx="10.974056" id="XMLID_240_" fill="#F9B39D" cy="138.989887" cx="139.565045"/>
   <ellipse stroke="null" ry="8.652621" rx="10.974056" id="XMLID_239_" fill="#F9B39D" cy="140.361644" cx="67.969878"/>
   <g stroke="null" id="XMLID_235_">
    <path stroke="null" id="XMLID_236_" fill="#1A1A1A" d="m128.221669,134.769096c-11.132336,0 -20.154277,-9.021941 -20.154277,-20.154277s9.021941,-20.154277 20.154277,-20.154277c11.132336,0 20.154277,9.021941 20.154277,20.154277s-9.074701,20.154277 -20.154277,20.154277zm0,-37.51228c-9.54954,0 -17.358003,7.755703 -17.358003,17.358003s7.755703,17.358003 17.358003,17.358003c9.54954,0 17.358003,-7.755703 17.358003,-17.358003s-7.808463,-17.358003 -17.358003,-17.358003z"/>
   </g>
   <g stroke="null" id="XMLID_231_">
    <path stroke="null" id="XMLID_232_" fill="#1A1A1A" d="m76.780779,134.769096c-11.132336,0 -20.154277,-9.021941 -20.154277,-20.154277s9.021941,-20.154277 20.154277,-20.154277c11.132336,0 20.154277,9.021941 20.154277,20.154277s-9.074701,20.154277 -20.154277,20.154277zm0,-37.51228c-9.54954,0 -17.358003,7.755703 -17.358003,17.358003s7.755703,17.358003 17.358003,17.358003s17.358003,-7.755703 17.358003,-17.358003s-7.808463,-17.358003 -17.358003,-17.358003z"/>
   </g>
   <g stroke="null" id="XMLID_229_">
    <path stroke="null" id="XMLID_230_" fill="#1A1A1A" d="m109.913988,108.811232c-4.80115,0.10552 -11.448895,0.15828 -14.772768,0.15828l0,2.849034c0.580359,0 1.213477,0 1.952116,0c2.743514,0 6.806025,-0.05276 12.873412,-0.21104l-0.05276,-2.796274z"/>
   </g>
   <g stroke="null" id="XMLID_227_">
    <polygon stroke="null" points="160.93280029296875,112.1878662109375 142.73065185546875,104.95976257324219 143.99688720703125,102.21625518798828 162.46282958984375,109.49710845947266 " id="XMLID_228_" fill="#1A1A1A"/>
   </g>
   <g stroke="null" id="XMLID_225_">
    <polygon stroke="null" points="44.22793197631836,113.34858703613281 42.908931732177734,110.55230712890625 61.32212829589844,101.84693145751953 62.48284912109375,104.74872589111328 " id="XMLID_226_" fill="#1A1A1A"/>
   </g>
   <g stroke="null" id="XMLID_223_">
    <path stroke="null" id="XMLID_224_" fill="#F4A792" d="m126.322313,160.357641c-0.474839,-0.474839 -16.830404,8.283302 -25.535785,8.283302c-9.18022,0 -25.535785,-8.283302 -25.535785,-8.283302c-0.580359,0.527599 18.043881,12.873412 25.535785,12.873412c7.966743,0 25.535785,-12.873412 25.535785,-12.873412z"/>
   </g>
   <ellipse stroke="null" ry="20.101517" rx="32.55285" id="XMLID_222_" fill="#3F2820" cy="22.970896" cx="100.733768"/>
   <path stroke="null" id="XMLID_221_" fill="#3F2820" d="m49.240118,99.736531l28.648619,-0.633119l1.002438,-25.060946l11.659935,25.852345l11.607175,0c0,0 -2.743514,-19.310119 -0.844158,-29.176217l10.763017,29.176217l46.059381,-2.374195c0,0 4.220791,10.288178 -2.321435,19.204599c0,0 2.743514,-1.266237 5.064949,-4.59011c0.21104,-0.422079 0.474839,-0.791398 0.738638,-1.266237c0.263799,-0.474839 0.527599,-0.896918 0.844158,-1.424517c0.791398,-1.688316 1.371757,-3.693192 1.635556,-6.120147c0,0 7.808463,-2.796274 13.82309,2.215915c0,0 10.393698,-70.06513 -50.227412,-80.406068c0,0 -109.476765,-23.636429 -102.354181,82.516463c0,0 12.134774,-14.878288 20.154277,9.021941l5.645308,5.487028l-1.899356,-22.422952z"/>
  </g>
 </g>
</svg>